<svg xmlns="http://www.w3.org/2000/svg" width="32" height="32" viewBox="0 0 32 32">
    <g fill="#78246D" fill-rule="evenodd">
        <path d="M8.384 17.137h1.265v6.848h1.197v-6.848h1.29v-1.122H8.383z"/>
        <path fill-rule="nonzero" d="M18.506 17.974c-.396 0-.765.216-1.112.644v-2.603h-1.076v7.97h1.076v-.575c.36.444.729.657 1.112.657.428 0 .716-.225.86-.667.072-.252.109-.647.109-1.197v-2.365c0-.562-.037-.954-.11-1.193-.143-.445-.431-.67-.86-.67zm-.108 4.313c0 .537-.157.802-.468.802-.177 0-.357-.085-.537-.265v-3.62c.18-.177.36-.262.537-.262.31 0 .468.275.468.81v2.535z"/>
        <path d="M14.31 22.585c-.239.337-.464.504-.68.504-.144 0-.226-.085-.252-.252-.01-.035-.01-.166-.01-.418v-4.372h-1.076v4.695c0 .42.036.703.095.883.108.301.347.442.693.442.396 0 .802-.239 1.23-.73v.649h1.077v-5.94H14.31v4.54zM15.234 12.56c.35 0 .518-.278.518-.833V9.203c0-.555-.168-.832-.518-.832-.351 0-.52.277-.52.832v2.524c0 .556.169.833.52.833z"/>
        <path fill-rule="nonzero" d="M15.96 0C7.144 0 0 7.145 0 15.96c0 8.813 7.145 15.958 15.96 15.958 8.813 0 15.958-7.145 15.958-15.959S24.773 0 15.96 0zm1.774 7.464h1.085v4.42c0 .254 0 .386.013.422.024.168.11.255.255.255.217 0 .445-.169.687-.51V7.465h1.087v6.002h-1.087v-.655c-.433.497-.846.737-1.243.737-.35 0-.591-.142-.7-.445-.06-.182-.097-.47-.097-.893V7.464zm-4.107 1.957c0-.641.11-1.11.34-1.413.301-.41.725-.616 1.267-.616.544 0 .967.205 1.268.616.228.303.337.772.337 1.413v2.102c0 .638-.109 1.111-.337 1.411-.3.41-.724.614-1.268.614-.542 0-.966-.204-1.267-.614-.23-.3-.34-.773-.34-1.411V9.42zM10.72 5.413l.856 3.162.823-3.162h1.22l-1.451 4.791v3.262H10.96v-3.262c-.11-.578-.35-1.424-.738-2.548-.254-.747-.519-1.497-.773-2.243h1.269zM24.551 24.51c-.219.946-.993 1.645-1.925 1.75-2.208.246-4.442.247-6.668.246-2.224.001-4.46 0-6.667-.247-.932-.104-1.707-.802-1.924-1.75-.311-1.348-.311-2.82-.311-4.208 0-1.389.004-2.86.314-4.21.218-.946.992-1.645 1.924-1.749 2.208-.246 4.443-.248 6.668-.246 2.225-.002 4.46 0 6.668.246.932.104 1.706.803 1.925 1.75.31 1.348.307 2.82.307 4.209 0 1.388 0 2.86-.311 4.209z"/>
        <path fill-rule="nonzero" d="M21.933 17.974c-.55 0-.978.202-1.289.609-.228.3-.332.765-.332 1.399v2.08c0 .632.116 1.1.346 1.397.31.405.739.608 1.302.608.562 0 1.003-.213 1.3-.644.131-.19.216-.407.252-.645.01-.108.023-.346.023-.693v-.157h-1.097c0 .431-.014.67-.024.729-.061.288-.216.431-.48.431-.37 0-.551-.274-.551-.823V21.21h2.152v-1.23c0-.634-.107-1.098-.333-1.399-.3-.405-.729-.608-1.269-.608zm.526 2.342h-1.076v-.55c0-.549.18-.823.54-.823.356 0 .536.275.536.824v.55z"/>
    </g>
</svg>
